<mxfile host="Electron" modified="2023-09-20T19:48:45.734Z" agent="Mozilla/5.0 (X11; Linux x86_64) AppleWebKit/537.36 (KHTML, like Gecko) draw.io/21.7.5 Chrome/114.0.5735.289 Electron/25.8.1 Safari/537.36" etag="JA8GuVcahol3IyiueJAv" version="21.7.5" type="device">
  <diagram name="Page-1" id="A_QDVkPsLcg1sZNQ4BJa">
    <mxGraphModel dx="1434" dy="838" grid="1" gridSize="10" guides="1" tooltips="1" connect="1" arrows="1" fold="1" page="1" pageScale="1" pageWidth="1100" pageHeight="850" math="0" shadow="0">
      <root>
        <mxCell id="0" />
        <mxCell id="1" parent="0" />
        <mxCell id="efC2fRp3ngmS4lfAasEv-72" style="edgeStyle=orthogonalEdgeStyle;rounded=0;orthogonalLoop=1;jettySize=auto;html=1;entryX=0.5;entryY=0;entryDx=0;entryDy=0;" parent="1" source="efC2fRp3ngmS4lfAasEv-5" target="efC2fRp3ngmS4lfAasEv-34" edge="1">
          <mxGeometry relative="1" as="geometry" />
        </mxCell>
        <mxCell id="efC2fRp3ngmS4lfAasEv-5" value="worktime" style="shape=table;startSize=30;container=1;collapsible=0;childLayout=tableLayout;fixedRows=1;rowLines=0;fontStyle=0;strokeColor=default;fontSize=16;" parent="1" vertex="1">
          <mxGeometry x="60" y="110" width="240" height="150" as="geometry" />
        </mxCell>
        <mxCell id="efC2fRp3ngmS4lfAasEv-6" value="" style="shape=tableRow;horizontal=0;startSize=0;swimlaneHead=0;swimlaneBody=0;top=0;left=0;bottom=0;right=0;collapsible=0;dropTarget=0;fillColor=none;points=[[0,0.5],[1,0.5]];portConstraint=eastwest;strokeColor=inherit;fontSize=16;" parent="efC2fRp3ngmS4lfAasEv-5" vertex="1">
          <mxGeometry y="30" width="240" height="30" as="geometry" />
        </mxCell>
        <mxCell id="efC2fRp3ngmS4lfAasEv-7" value="PK" style="shape=partialRectangle;html=1;whiteSpace=wrap;connectable=0;fillColor=none;top=0;left=0;bottom=0;right=0;overflow=hidden;pointerEvents=1;strokeColor=inherit;fontSize=16;" parent="efC2fRp3ngmS4lfAasEv-6" vertex="1">
          <mxGeometry width="80" height="30" as="geometry">
            <mxRectangle width="80" height="30" as="alternateBounds" />
          </mxGeometry>
        </mxCell>
        <mxCell id="efC2fRp3ngmS4lfAasEv-8" value="ID" style="shape=partialRectangle;html=1;whiteSpace=wrap;connectable=0;fillColor=none;top=0;left=0;bottom=0;right=0;align=left;spacingLeft=6;overflow=hidden;strokeColor=inherit;fontSize=16;" parent="efC2fRp3ngmS4lfAasEv-6" vertex="1">
          <mxGeometry x="80" width="160" height="30" as="geometry">
            <mxRectangle width="160" height="30" as="alternateBounds" />
          </mxGeometry>
        </mxCell>
        <mxCell id="efC2fRp3ngmS4lfAasEv-9" value="" style="shape=tableRow;horizontal=0;startSize=0;swimlaneHead=0;swimlaneBody=0;top=0;left=0;bottom=0;right=0;collapsible=0;dropTarget=0;fillColor=none;points=[[0,0.5],[1,0.5]];portConstraint=eastwest;strokeColor=inherit;fontSize=16;" parent="efC2fRp3ngmS4lfAasEv-5" vertex="1">
          <mxGeometry y="60" width="240" height="30" as="geometry" />
        </mxCell>
        <mxCell id="efC2fRp3ngmS4lfAasEv-10" value="datetime" style="shape=partialRectangle;html=1;whiteSpace=wrap;connectable=0;fillColor=none;top=0;left=0;bottom=0;right=0;overflow=hidden;strokeColor=inherit;fontSize=16;" parent="efC2fRp3ngmS4lfAasEv-9" vertex="1">
          <mxGeometry width="80" height="30" as="geometry">
            <mxRectangle width="80" height="30" as="alternateBounds" />
          </mxGeometry>
        </mxCell>
        <mxCell id="efC2fRp3ngmS4lfAasEv-11" value="start" style="shape=partialRectangle;html=1;whiteSpace=wrap;connectable=0;fillColor=none;top=0;left=0;bottom=0;right=0;align=left;spacingLeft=6;overflow=hidden;strokeColor=inherit;fontSize=16;" parent="efC2fRp3ngmS4lfAasEv-9" vertex="1">
          <mxGeometry x="80" width="160" height="30" as="geometry">
            <mxRectangle width="160" height="30" as="alternateBounds" />
          </mxGeometry>
        </mxCell>
        <mxCell id="efC2fRp3ngmS4lfAasEv-12" value="" style="shape=tableRow;horizontal=0;startSize=0;swimlaneHead=0;swimlaneBody=0;top=0;left=0;bottom=0;right=0;collapsible=0;dropTarget=0;fillColor=none;points=[[0,0.5],[1,0.5]];portConstraint=eastwest;strokeColor=inherit;fontSize=16;" parent="efC2fRp3ngmS4lfAasEv-5" vertex="1">
          <mxGeometry y="90" width="240" height="30" as="geometry" />
        </mxCell>
        <mxCell id="efC2fRp3ngmS4lfAasEv-13" value="datetime" style="shape=partialRectangle;html=1;whiteSpace=wrap;connectable=0;fillColor=none;top=0;left=0;bottom=0;right=0;overflow=hidden;strokeColor=inherit;fontSize=16;" parent="efC2fRp3ngmS4lfAasEv-12" vertex="1">
          <mxGeometry width="80" height="30" as="geometry">
            <mxRectangle width="80" height="30" as="alternateBounds" />
          </mxGeometry>
        </mxCell>
        <mxCell id="efC2fRp3ngmS4lfAasEv-14" value="stop" style="shape=partialRectangle;html=1;whiteSpace=wrap;connectable=0;fillColor=none;top=0;left=0;bottom=0;right=0;align=left;spacingLeft=6;overflow=hidden;strokeColor=inherit;fontSize=16;" parent="efC2fRp3ngmS4lfAasEv-12" vertex="1">
          <mxGeometry x="80" width="160" height="30" as="geometry">
            <mxRectangle width="160" height="30" as="alternateBounds" />
          </mxGeometry>
        </mxCell>
        <mxCell id="efC2fRp3ngmS4lfAasEv-18" value="" style="shape=tableRow;horizontal=0;startSize=0;swimlaneHead=0;swimlaneBody=0;top=0;left=0;bottom=0;right=0;collapsible=0;dropTarget=0;fillColor=none;points=[[0,0.5],[1,0.5]];portConstraint=eastwest;strokeColor=inherit;fontSize=16;" parent="efC2fRp3ngmS4lfAasEv-5" vertex="1">
          <mxGeometry y="120" width="240" height="30" as="geometry" />
        </mxCell>
        <mxCell id="efC2fRp3ngmS4lfAasEv-19" value="String" style="shape=partialRectangle;html=1;whiteSpace=wrap;connectable=0;fillColor=none;top=0;left=0;bottom=0;right=0;overflow=hidden;strokeColor=inherit;fontSize=16;" parent="efC2fRp3ngmS4lfAasEv-18" vertex="1">
          <mxGeometry width="80" height="30" as="geometry">
            <mxRectangle width="80" height="30" as="alternateBounds" />
          </mxGeometry>
        </mxCell>
        <mxCell id="efC2fRp3ngmS4lfAasEv-20" value="Description" style="shape=partialRectangle;html=1;whiteSpace=wrap;connectable=0;fillColor=none;top=0;left=0;bottom=0;right=0;align=left;spacingLeft=6;overflow=hidden;strokeColor=inherit;fontSize=16;" parent="efC2fRp3ngmS4lfAasEv-18" vertex="1">
          <mxGeometry x="80" width="160" height="30" as="geometry">
            <mxRectangle width="160" height="30" as="alternateBounds" />
          </mxGeometry>
        </mxCell>
        <mxCell id="efC2fRp3ngmS4lfAasEv-74" style="edgeStyle=orthogonalEdgeStyle;rounded=0;orthogonalLoop=1;jettySize=auto;html=1;" parent="1" source="efC2fRp3ngmS4lfAasEv-21" target="efC2fRp3ngmS4lfAasEv-65" edge="1">
          <mxGeometry relative="1" as="geometry" />
        </mxCell>
        <mxCell id="efC2fRp3ngmS4lfAasEv-21" value="task" style="shape=table;startSize=30;container=1;collapsible=0;childLayout=tableLayout;fixedRows=1;rowLines=0;fontStyle=0;strokeColor=default;fontSize=16;" parent="1" vertex="1">
          <mxGeometry x="70" y="500" width="220" height="120" as="geometry" />
        </mxCell>
        <mxCell id="efC2fRp3ngmS4lfAasEv-22" value="" style="shape=tableRow;horizontal=0;startSize=0;swimlaneHead=0;swimlaneBody=0;top=0;left=0;bottom=0;right=0;collapsible=0;dropTarget=0;fillColor=none;points=[[0,0.5],[1,0.5]];portConstraint=eastwest;strokeColor=inherit;fontSize=16;" parent="efC2fRp3ngmS4lfAasEv-21" vertex="1">
          <mxGeometry y="30" width="220" height="30" as="geometry" />
        </mxCell>
        <mxCell id="efC2fRp3ngmS4lfAasEv-23" value="PK" style="shape=partialRectangle;html=1;whiteSpace=wrap;connectable=0;fillColor=none;top=0;left=0;bottom=0;right=0;overflow=hidden;pointerEvents=1;strokeColor=inherit;fontSize=16;" parent="efC2fRp3ngmS4lfAasEv-22" vertex="1">
          <mxGeometry width="86" height="30" as="geometry">
            <mxRectangle width="86" height="30" as="alternateBounds" />
          </mxGeometry>
        </mxCell>
        <mxCell id="efC2fRp3ngmS4lfAasEv-24" value="ID" style="shape=partialRectangle;html=1;whiteSpace=wrap;connectable=0;fillColor=none;top=0;left=0;bottom=0;right=0;align=left;spacingLeft=6;overflow=hidden;strokeColor=inherit;fontSize=16;" parent="efC2fRp3ngmS4lfAasEv-22" vertex="1">
          <mxGeometry x="86" width="134" height="30" as="geometry">
            <mxRectangle width="134" height="30" as="alternateBounds" />
          </mxGeometry>
        </mxCell>
        <mxCell id="efC2fRp3ngmS4lfAasEv-25" value="" style="shape=tableRow;horizontal=0;startSize=0;swimlaneHead=0;swimlaneBody=0;top=0;left=0;bottom=0;right=0;collapsible=0;dropTarget=0;fillColor=none;points=[[0,0.5],[1,0.5]];portConstraint=eastwest;strokeColor=inherit;fontSize=16;" parent="efC2fRp3ngmS4lfAasEv-21" vertex="1">
          <mxGeometry y="60" width="220" height="30" as="geometry" />
        </mxCell>
        <mxCell id="efC2fRp3ngmS4lfAasEv-26" value="String" style="shape=partialRectangle;html=1;whiteSpace=wrap;connectable=0;fillColor=none;top=0;left=0;bottom=0;right=0;overflow=hidden;strokeColor=inherit;fontSize=16;" parent="efC2fRp3ngmS4lfAasEv-25" vertex="1">
          <mxGeometry width="86" height="30" as="geometry">
            <mxRectangle width="86" height="30" as="alternateBounds" />
          </mxGeometry>
        </mxCell>
        <mxCell id="efC2fRp3ngmS4lfAasEv-27" value="Name" style="shape=partialRectangle;html=1;whiteSpace=wrap;connectable=0;fillColor=none;top=0;left=0;bottom=0;right=0;align=left;spacingLeft=6;overflow=hidden;strokeColor=inherit;fontSize=16;" parent="efC2fRp3ngmS4lfAasEv-25" vertex="1">
          <mxGeometry x="86" width="134" height="30" as="geometry">
            <mxRectangle width="134" height="30" as="alternateBounds" />
          </mxGeometry>
        </mxCell>
        <mxCell id="efC2fRp3ngmS4lfAasEv-28" value="" style="shape=tableRow;horizontal=0;startSize=0;swimlaneHead=0;swimlaneBody=0;top=0;left=0;bottom=0;right=0;collapsible=0;dropTarget=0;fillColor=none;points=[[0,0.5],[1,0.5]];portConstraint=eastwest;strokeColor=inherit;fontSize=16;" parent="efC2fRp3ngmS4lfAasEv-21" vertex="1">
          <mxGeometry y="90" width="220" height="30" as="geometry" />
        </mxCell>
        <mxCell id="efC2fRp3ngmS4lfAasEv-29" value="String" style="shape=partialRectangle;html=1;whiteSpace=wrap;connectable=0;fillColor=none;top=0;left=0;bottom=0;right=0;overflow=hidden;strokeColor=inherit;fontSize=16;" parent="efC2fRp3ngmS4lfAasEv-28" vertex="1">
          <mxGeometry width="86" height="30" as="geometry">
            <mxRectangle width="86" height="30" as="alternateBounds" />
          </mxGeometry>
        </mxCell>
        <mxCell id="efC2fRp3ngmS4lfAasEv-30" value="Description" style="shape=partialRectangle;html=1;whiteSpace=wrap;connectable=0;fillColor=none;top=0;left=0;bottom=0;right=0;align=left;spacingLeft=6;overflow=hidden;strokeColor=inherit;fontSize=16;" parent="efC2fRp3ngmS4lfAasEv-28" vertex="1">
          <mxGeometry x="86" width="134" height="30" as="geometry">
            <mxRectangle width="134" height="30" as="alternateBounds" />
          </mxGeometry>
        </mxCell>
        <mxCell id="efC2fRp3ngmS4lfAasEv-73" style="edgeStyle=orthogonalEdgeStyle;rounded=0;orthogonalLoop=1;jettySize=auto;html=1;entryX=0.5;entryY=0;entryDx=0;entryDy=0;" parent="1" source="efC2fRp3ngmS4lfAasEv-34" target="efC2fRp3ngmS4lfAasEv-21" edge="1">
          <mxGeometry relative="1" as="geometry" />
        </mxCell>
        <mxCell id="efC2fRp3ngmS4lfAasEv-34" value="worktime_task" style="shape=table;startSize=30;container=1;collapsible=0;childLayout=tableLayout;fixedRows=1;rowLines=0;fontStyle=0;strokeColor=default;fontSize=16;" parent="1" vertex="1">
          <mxGeometry x="70" y="330" width="220" height="90" as="geometry" />
        </mxCell>
        <mxCell id="efC2fRp3ngmS4lfAasEv-35" value="" style="shape=tableRow;horizontal=0;startSize=0;swimlaneHead=0;swimlaneBody=0;top=0;left=0;bottom=0;right=0;collapsible=0;dropTarget=0;fillColor=none;points=[[0,0.5],[1,0.5]];portConstraint=eastwest;strokeColor=inherit;fontSize=16;" parent="efC2fRp3ngmS4lfAasEv-34" vertex="1">
          <mxGeometry y="30" width="220" height="30" as="geometry" />
        </mxCell>
        <mxCell id="efC2fRp3ngmS4lfAasEv-36" value="FK" style="shape=partialRectangle;html=1;whiteSpace=wrap;connectable=0;fillColor=none;top=0;left=0;bottom=0;right=0;overflow=hidden;pointerEvents=1;strokeColor=inherit;fontSize=16;" parent="efC2fRp3ngmS4lfAasEv-35" vertex="1">
          <mxGeometry width="86" height="30" as="geometry">
            <mxRectangle width="86" height="30" as="alternateBounds" />
          </mxGeometry>
        </mxCell>
        <mxCell id="efC2fRp3ngmS4lfAasEv-37" value="worktime_id" style="shape=partialRectangle;html=1;whiteSpace=wrap;connectable=0;fillColor=none;top=0;left=0;bottom=0;right=0;align=left;spacingLeft=6;overflow=hidden;strokeColor=inherit;fontSize=16;" parent="efC2fRp3ngmS4lfAasEv-35" vertex="1">
          <mxGeometry x="86" width="134" height="30" as="geometry">
            <mxRectangle width="134" height="30" as="alternateBounds" />
          </mxGeometry>
        </mxCell>
        <mxCell id="efC2fRp3ngmS4lfAasEv-38" value="" style="shape=tableRow;horizontal=0;startSize=0;swimlaneHead=0;swimlaneBody=0;top=0;left=0;bottom=0;right=0;collapsible=0;dropTarget=0;fillColor=none;points=[[0,0.5],[1,0.5]];portConstraint=eastwest;strokeColor=inherit;fontSize=16;" parent="efC2fRp3ngmS4lfAasEv-34" vertex="1">
          <mxGeometry y="60" width="220" height="30" as="geometry" />
        </mxCell>
        <mxCell id="efC2fRp3ngmS4lfAasEv-39" value="FK" style="shape=partialRectangle;html=1;whiteSpace=wrap;connectable=0;fillColor=none;top=0;left=0;bottom=0;right=0;overflow=hidden;strokeColor=inherit;fontSize=16;" parent="efC2fRp3ngmS4lfAasEv-38" vertex="1">
          <mxGeometry width="86" height="30" as="geometry">
            <mxRectangle width="86" height="30" as="alternateBounds" />
          </mxGeometry>
        </mxCell>
        <mxCell id="efC2fRp3ngmS4lfAasEv-40" value="task_id" style="shape=partialRectangle;html=1;whiteSpace=wrap;connectable=0;fillColor=none;top=0;left=0;bottom=0;right=0;align=left;spacingLeft=6;overflow=hidden;strokeColor=inherit;fontSize=16;" parent="efC2fRp3ngmS4lfAasEv-38" vertex="1">
          <mxGeometry x="86" width="134" height="30" as="geometry">
            <mxRectangle width="134" height="30" as="alternateBounds" />
          </mxGeometry>
        </mxCell>
        <mxCell id="efC2fRp3ngmS4lfAasEv-76" style="edgeStyle=orthogonalEdgeStyle;rounded=0;orthogonalLoop=1;jettySize=auto;html=1;entryX=0.529;entryY=-0.008;entryDx=0;entryDy=0;entryPerimeter=0;" parent="1" source="efC2fRp3ngmS4lfAasEv-44" target="efC2fRp3ngmS4lfAasEv-51" edge="1">
          <mxGeometry relative="1" as="geometry" />
        </mxCell>
        <mxCell id="efC2fRp3ngmS4lfAasEv-44" value="status_worktime" style="shape=table;startSize=30;container=1;collapsible=0;childLayout=tableLayout;fixedRows=1;rowLines=0;fontStyle=0;strokeColor=default;fontSize=16;" parent="1" vertex="1">
          <mxGeometry x="440" y="300" width="220" height="90" as="geometry" />
        </mxCell>
        <mxCell id="efC2fRp3ngmS4lfAasEv-45" value="" style="shape=tableRow;horizontal=0;startSize=0;swimlaneHead=0;swimlaneBody=0;top=0;left=0;bottom=0;right=0;collapsible=0;dropTarget=0;fillColor=none;points=[[0,0.5],[1,0.5]];portConstraint=eastwest;strokeColor=inherit;fontSize=16;" parent="efC2fRp3ngmS4lfAasEv-44" vertex="1">
          <mxGeometry y="30" width="220" height="30" as="geometry" />
        </mxCell>
        <mxCell id="efC2fRp3ngmS4lfAasEv-46" value="FK" style="shape=partialRectangle;html=1;whiteSpace=wrap;connectable=0;fillColor=none;top=0;left=0;bottom=0;right=0;overflow=hidden;pointerEvents=1;strokeColor=inherit;fontSize=16;" parent="efC2fRp3ngmS4lfAasEv-45" vertex="1">
          <mxGeometry width="86" height="30" as="geometry">
            <mxRectangle width="86" height="30" as="alternateBounds" />
          </mxGeometry>
        </mxCell>
        <mxCell id="efC2fRp3ngmS4lfAasEv-47" value="worktime_id" style="shape=partialRectangle;html=1;whiteSpace=wrap;connectable=0;fillColor=none;top=0;left=0;bottom=0;right=0;align=left;spacingLeft=6;overflow=hidden;strokeColor=inherit;fontSize=16;" parent="efC2fRp3ngmS4lfAasEv-45" vertex="1">
          <mxGeometry x="86" width="134" height="30" as="geometry">
            <mxRectangle width="134" height="30" as="alternateBounds" />
          </mxGeometry>
        </mxCell>
        <mxCell id="efC2fRp3ngmS4lfAasEv-48" value="" style="shape=tableRow;horizontal=0;startSize=0;swimlaneHead=0;swimlaneBody=0;top=0;left=0;bottom=0;right=0;collapsible=0;dropTarget=0;fillColor=none;points=[[0,0.5],[1,0.5]];portConstraint=eastwest;strokeColor=inherit;fontSize=16;" parent="efC2fRp3ngmS4lfAasEv-44" vertex="1">
          <mxGeometry y="60" width="220" height="30" as="geometry" />
        </mxCell>
        <mxCell id="efC2fRp3ngmS4lfAasEv-49" value="FK" style="shape=partialRectangle;html=1;whiteSpace=wrap;connectable=0;fillColor=none;top=0;left=0;bottom=0;right=0;overflow=hidden;strokeColor=inherit;fontSize=16;" parent="efC2fRp3ngmS4lfAasEv-48" vertex="1">
          <mxGeometry width="86" height="30" as="geometry">
            <mxRectangle width="86" height="30" as="alternateBounds" />
          </mxGeometry>
        </mxCell>
        <mxCell id="efC2fRp3ngmS4lfAasEv-50" value="status_id" style="shape=partialRectangle;html=1;whiteSpace=wrap;connectable=0;fillColor=none;top=0;left=0;bottom=0;right=0;align=left;spacingLeft=6;overflow=hidden;strokeColor=inherit;fontSize=16;" parent="efC2fRp3ngmS4lfAasEv-48" vertex="1">
          <mxGeometry x="86" width="134" height="30" as="geometry">
            <mxRectangle width="134" height="30" as="alternateBounds" />
          </mxGeometry>
        </mxCell>
        <mxCell id="efC2fRp3ngmS4lfAasEv-51" value="status" style="shape=table;startSize=30;container=1;collapsible=0;childLayout=tableLayout;fixedRows=1;rowLines=0;fontStyle=0;strokeColor=default;fontSize=16;" parent="1" vertex="1">
          <mxGeometry x="710" y="500" width="240" height="120" as="geometry" />
        </mxCell>
        <mxCell id="efC2fRp3ngmS4lfAasEv-52" value="" style="shape=tableRow;horizontal=0;startSize=0;swimlaneHead=0;swimlaneBody=0;top=0;left=0;bottom=0;right=0;collapsible=0;dropTarget=0;fillColor=none;points=[[0,0.5],[1,0.5]];portConstraint=eastwest;strokeColor=inherit;fontSize=16;" parent="efC2fRp3ngmS4lfAasEv-51" vertex="1">
          <mxGeometry y="30" width="240" height="30" as="geometry" />
        </mxCell>
        <mxCell id="efC2fRp3ngmS4lfAasEv-53" value="PK" style="shape=partialRectangle;html=1;whiteSpace=wrap;connectable=0;fillColor=none;top=0;left=0;bottom=0;right=0;overflow=hidden;pointerEvents=1;strokeColor=inherit;fontSize=16;" parent="efC2fRp3ngmS4lfAasEv-52" vertex="1">
          <mxGeometry width="80" height="30" as="geometry">
            <mxRectangle width="80" height="30" as="alternateBounds" />
          </mxGeometry>
        </mxCell>
        <mxCell id="efC2fRp3ngmS4lfAasEv-54" value="ID" style="shape=partialRectangle;html=1;whiteSpace=wrap;connectable=0;fillColor=none;top=0;left=0;bottom=0;right=0;align=left;spacingLeft=6;overflow=hidden;strokeColor=inherit;fontSize=16;" parent="efC2fRp3ngmS4lfAasEv-52" vertex="1">
          <mxGeometry x="80" width="160" height="30" as="geometry">
            <mxRectangle width="160" height="30" as="alternateBounds" />
          </mxGeometry>
        </mxCell>
        <mxCell id="efC2fRp3ngmS4lfAasEv-55" value="" style="shape=tableRow;horizontal=0;startSize=0;swimlaneHead=0;swimlaneBody=0;top=0;left=0;bottom=0;right=0;collapsible=0;dropTarget=0;fillColor=none;points=[[0,0.5],[1,0.5]];portConstraint=eastwest;strokeColor=inherit;fontSize=16;" parent="efC2fRp3ngmS4lfAasEv-51" vertex="1">
          <mxGeometry y="60" width="240" height="30" as="geometry" />
        </mxCell>
        <mxCell id="efC2fRp3ngmS4lfAasEv-56" value="String" style="shape=partialRectangle;html=1;whiteSpace=wrap;connectable=0;fillColor=none;top=0;left=0;bottom=0;right=0;overflow=hidden;strokeColor=inherit;fontSize=16;" parent="efC2fRp3ngmS4lfAasEv-55" vertex="1">
          <mxGeometry width="80" height="30" as="geometry">
            <mxRectangle width="80" height="30" as="alternateBounds" />
          </mxGeometry>
        </mxCell>
        <mxCell id="efC2fRp3ngmS4lfAasEv-57" value="Name" style="shape=partialRectangle;html=1;whiteSpace=wrap;connectable=0;fillColor=none;top=0;left=0;bottom=0;right=0;align=left;spacingLeft=6;overflow=hidden;strokeColor=inherit;fontSize=16;" parent="efC2fRp3ngmS4lfAasEv-55" vertex="1">
          <mxGeometry x="80" width="160" height="30" as="geometry">
            <mxRectangle width="160" height="30" as="alternateBounds" />
          </mxGeometry>
        </mxCell>
        <mxCell id="efC2fRp3ngmS4lfAasEv-61" value="" style="shape=tableRow;horizontal=0;startSize=0;swimlaneHead=0;swimlaneBody=0;top=0;left=0;bottom=0;right=0;collapsible=0;dropTarget=0;fillColor=none;points=[[0,0.5],[1,0.5]];portConstraint=eastwest;strokeColor=inherit;fontSize=16;" parent="efC2fRp3ngmS4lfAasEv-51" vertex="1">
          <mxGeometry y="90" width="240" height="30" as="geometry" />
        </mxCell>
        <mxCell id="efC2fRp3ngmS4lfAasEv-62" value="String" style="shape=partialRectangle;html=1;whiteSpace=wrap;connectable=0;fillColor=none;top=0;left=0;bottom=0;right=0;overflow=hidden;strokeColor=inherit;fontSize=16;" parent="efC2fRp3ngmS4lfAasEv-61" vertex="1">
          <mxGeometry width="80" height="30" as="geometry">
            <mxRectangle width="80" height="30" as="alternateBounds" />
          </mxGeometry>
        </mxCell>
        <mxCell id="efC2fRp3ngmS4lfAasEv-63" value="Description" style="shape=partialRectangle;html=1;whiteSpace=wrap;connectable=0;fillColor=none;top=0;left=0;bottom=0;right=0;align=left;spacingLeft=6;overflow=hidden;strokeColor=inherit;fontSize=16;" parent="efC2fRp3ngmS4lfAasEv-61" vertex="1">
          <mxGeometry x="80" width="160" height="30" as="geometry">
            <mxRectangle width="160" height="30" as="alternateBounds" />
          </mxGeometry>
        </mxCell>
        <mxCell id="efC2fRp3ngmS4lfAasEv-75" style="edgeStyle=orthogonalEdgeStyle;rounded=0;orthogonalLoop=1;jettySize=auto;html=1;entryX=-0.017;entryY=0.133;entryDx=0;entryDy=0;entryPerimeter=0;" parent="1" source="efC2fRp3ngmS4lfAasEv-64" target="efC2fRp3ngmS4lfAasEv-55" edge="1">
          <mxGeometry relative="1" as="geometry" />
        </mxCell>
        <mxCell id="efC2fRp3ngmS4lfAasEv-64" value="status_task" style="shape=table;startSize=30;container=1;collapsible=0;childLayout=tableLayout;fixedRows=1;rowLines=0;fontStyle=0;strokeColor=default;fontSize=16;" parent="1" vertex="1">
          <mxGeometry x="390" y="520" width="220" height="90" as="geometry" />
        </mxCell>
        <mxCell id="efC2fRp3ngmS4lfAasEv-65" value="" style="shape=tableRow;horizontal=0;startSize=0;swimlaneHead=0;swimlaneBody=0;top=0;left=0;bottom=0;right=0;collapsible=0;dropTarget=0;fillColor=none;points=[[0,0.5],[1,0.5]];portConstraint=eastwest;strokeColor=inherit;fontSize=16;" parent="efC2fRp3ngmS4lfAasEv-64" vertex="1">
          <mxGeometry y="30" width="220" height="30" as="geometry" />
        </mxCell>
        <mxCell id="efC2fRp3ngmS4lfAasEv-66" value="FK" style="shape=partialRectangle;html=1;whiteSpace=wrap;connectable=0;fillColor=none;top=0;left=0;bottom=0;right=0;overflow=hidden;pointerEvents=1;strokeColor=inherit;fontSize=16;" parent="efC2fRp3ngmS4lfAasEv-65" vertex="1">
          <mxGeometry width="86" height="30" as="geometry">
            <mxRectangle width="86" height="30" as="alternateBounds" />
          </mxGeometry>
        </mxCell>
        <mxCell id="efC2fRp3ngmS4lfAasEv-67" value="task_id" style="shape=partialRectangle;html=1;whiteSpace=wrap;connectable=0;fillColor=none;top=0;left=0;bottom=0;right=0;align=left;spacingLeft=6;overflow=hidden;strokeColor=inherit;fontSize=16;" parent="efC2fRp3ngmS4lfAasEv-65" vertex="1">
          <mxGeometry x="86" width="134" height="30" as="geometry">
            <mxRectangle width="134" height="30" as="alternateBounds" />
          </mxGeometry>
        </mxCell>
        <mxCell id="efC2fRp3ngmS4lfAasEv-68" value="" style="shape=tableRow;horizontal=0;startSize=0;swimlaneHead=0;swimlaneBody=0;top=0;left=0;bottom=0;right=0;collapsible=0;dropTarget=0;fillColor=none;points=[[0,0.5],[1,0.5]];portConstraint=eastwest;strokeColor=inherit;fontSize=16;" parent="efC2fRp3ngmS4lfAasEv-64" vertex="1">
          <mxGeometry y="60" width="220" height="30" as="geometry" />
        </mxCell>
        <mxCell id="efC2fRp3ngmS4lfAasEv-69" value="FK" style="shape=partialRectangle;html=1;whiteSpace=wrap;connectable=0;fillColor=none;top=0;left=0;bottom=0;right=0;overflow=hidden;strokeColor=inherit;fontSize=16;" parent="efC2fRp3ngmS4lfAasEv-68" vertex="1">
          <mxGeometry width="86" height="30" as="geometry">
            <mxRectangle width="86" height="30" as="alternateBounds" />
          </mxGeometry>
        </mxCell>
        <mxCell id="efC2fRp3ngmS4lfAasEv-70" value="status_id" style="shape=partialRectangle;html=1;whiteSpace=wrap;connectable=0;fillColor=none;top=0;left=0;bottom=0;right=0;align=left;spacingLeft=6;overflow=hidden;strokeColor=inherit;fontSize=16;" parent="efC2fRp3ngmS4lfAasEv-68" vertex="1">
          <mxGeometry x="86" width="134" height="30" as="geometry">
            <mxRectangle width="134" height="30" as="alternateBounds" />
          </mxGeometry>
        </mxCell>
        <mxCell id="efC2fRp3ngmS4lfAasEv-77" style="edgeStyle=orthogonalEdgeStyle;rounded=0;orthogonalLoop=1;jettySize=auto;html=1;entryX=0.5;entryY=0;entryDx=0;entryDy=0;" parent="1" source="efC2fRp3ngmS4lfAasEv-9" target="efC2fRp3ngmS4lfAasEv-44" edge="1">
          <mxGeometry relative="1" as="geometry" />
        </mxCell>
      </root>
    </mxGraphModel>
  </diagram>
</mxfile>
